<?xml version="1.0" encoding="utf-8"?>
<!-- Generator: Adobe Illustrator 26.0.1, SVG Export Plug-In . SVG Version: 6.00 Build 0)  -->
<svg version="1.1" id="Calque_1" xmlns="http://www.w3.org/2000/svg" xmlns:xlink="http://www.w3.org/1999/xlink" x="0px" y="0px"
	 viewBox="0 0 1500 1500" style="enable-background:new 0 0 1500 1500;" xml:space="preserve">
<style type="text/css">
	.st0{font-family:'PragmaticaExtended-Medium';}
	.st1{font-size:21.3536px;}
	.st2{letter-spacing:14;}
	.st3{fill:#1A1A1A;}
	.st4{font-family:'PragmaticaExtended-Book';}
	.st5{font-size:25.6244px;}
	.st6{fill:#052735;}
	.st7{fill:#42EA96;}
	.st8{fill:#24C671;}
</style>
<g>
	<text transform="matrix(1 0 0 1 379.5331 866.0455)" class="st0 st1 st2">The power of Designing</text>
	<text transform="matrix(1 0 0 1 1171.5117 649.9693)" class="st3 st4 st5">TM</text>
	<g>
		<g>
			<path class="st6" d="M285.08,735.62c0-47.73,29.23-85.65,81.08-85.65c40.43,0,69.43,23.07,71.26,61.44H399.5
				c-0.91-15.76-13.25-27.18-34.26-27.18c-30.38,0-42.25,23.53-42.25,51.16c0,26.26,10.73,50.47,42.02,50.47
				c17.59,0,32.66-7.77,36.09-26.72h-42.25v-13.87c0-10.5,8.51-19.02,19.02-19.02h59.55v87.47H404.3v-19.41
				c-7.08,14.16-22.15,23.52-46.59,23.52C307.01,817.84,285.08,777.87,285.08,735.62z"/>
		</g>
		<path class="st6" d="M821.65,653.97h22.83v159.87h-37.46V668.59C807.03,660.51,813.57,653.97,821.65,653.97z"/>
		<path class="st6" d="M1033.22,751.03l-59.61-97.07h30.21c8.67,0,16.63,4.8,20.68,12.46l27.44,51.94l34.03-64.41h44.31
			l-59.61,97.07v46.27c0,9.13-7.4,16.54-16.54,16.54h-20.92V751.03z"/>
		<path class="st6" d="M569.25,792.05l-27.46-42.62c20.33-7.77,30.6-25.58,30.6-45.91c0-25.35-17.59-49.56-52.76-49.56h-77.88
			v159.87h24.11c7.37,0,13.35-5.98,13.35-13.35v-41.92h0c16.8,0,32.32,9.01,40.64,23.61l18.05,31.66h22.97L569.25,792.05z
			 M513.01,726.82h-33.8v-37.68h34.49c14.16,0,20.78,7.54,20.78,18.04C534.48,717.69,528.08,726.82,513.01,726.82z"/>
		<path class="st7" d="M658.56,653.97h-0.46L644.83,694l0.13,0.38l0.21,0.64l39.29,118.81h28.8c5.55,0,9.41-5.51,7.51-10.72
			l-51.65-141.76C667.5,656.92,663.28,653.97,658.56,653.97z"/>
		<path class="st6" d="M658.09,653.97l-50.24,151.69c-1.62,4.89-6.19,8.19-11.34,8.19h-31.26l52.84-145.07
			c3.24-8.89,11.69-14.81,21.15-14.81H658.09z"/>
		<path class="st7" d="M778.06,653.97h-0.46L764.34,694l0.13,0.38l0.21,0.64l39.29,118.81h40.21l-55.56-152.48
			C787,656.92,782.78,653.97,778.06,653.97z"/>
		<path class="st6" d="M777.6,653.97l-49.64,149.85c-1.98,5.98-7.58,10.02-13.88,10.02h-29.33l52.84-145.07
			c3.24-8.89,11.69-14.81,21.15-14.81H777.6z"/>
		<polygon class="st7" points="850.04,653.97 850.04,689.14 901.66,689.14 901.66,813.84 939.11,813.84 939.11,689.14 
			987.38,689.14 966.13,653.97 		"/>
		<polygon class="st8" points="772.54,718.79 764.47,694.39 777.6,653.97 		"/>
		<polygon class="st8" points="684.75,813.84 704.71,759.05 697.28,738.67 		"/>
	</g>
</g>
</svg>
