<?xml version="1.0" encoding="utf-8"?>
<!-- Generator: Adobe Illustrator 26.0.1, SVG Export Plug-In . SVG Version: 6.00 Build 0)  -->
<svg version="1.1" id="Calque_1" xmlns="http://www.w3.org/2000/svg" xmlns:xlink="http://www.w3.org/1999/xlink" x="0px" y="0px"
	 viewBox="0 0 430 100" style="enable-background:new 0 0 430 100;" xml:space="preserve">
<style type="text/css">
	.st0{enable-background:new    ;}
	.st1{fill:#FFFFFF;}
	.st2{fill:#ED1C24;}
	.st3{fill:url(#SVGID_1_);}
</style>
<g>
	<g class="st0">
		<path class="st1" d="M165.67,80.54v0.65h-18.92v-0.65c1.75-0.15,2.62-0.73,2.69-1.82c0-1.09-0.44-2.18-1.24-3.27l-16.08-21.24
			l-8.37,6.84v15.71c0,1.09,0.29,1.96,0.87,2.69c0.58,0.66,1.46,1.02,2.69,1.09v0.65h-13.97v-0.65c2.4-0.22,3.64-1.46,3.71-3.78
			V37.11c-0.07-2.26-1.31-3.49-3.71-3.71v-0.65h13.97v0.65c-1.24,0.07-2.11,0.44-2.69,1.09c-0.58,0.73-0.87,1.6-0.87,2.69v22.55
			l11.35-9.39c2.11-1.75,4.29-3.56,6.48-5.46c2.98-2.47,5.82-4.87,8.66-7.2c0.51-0.36,1.09-0.95,1.75-1.6s1.09-1.24,1.16-1.82
			c0.07-0.51-0.58-0.8-1.89-0.87h-0.36v-0.65h10.33v0.65h-0.87c-1.16,0.15-2.4,0.51-3.71,1.16c-1.38,0.65-2.47,1.38-3.42,2.18
			l-15.93,13.1c1.16,1.53,2.33,3.06,3.42,4.58c1.24,1.67,2.4,3.27,3.49,4.8c4.44,6.18,8.95,12.08,13.46,17.68
			C159.77,79.31,162.39,80.47,165.67,80.54z"/>
		<path class="st1" d="M166.91,44.97c3.27-0.36,6.4-1.02,9.53-2.04h1.02v33.83c0,2.26,1.09,3.56,3.35,3.86v0.66h-13.24v-0.66
			c2.18-0.36,3.27-1.6,3.35-3.86V50.2c0-1.31-0.29-2.4-0.95-3.27s-1.67-1.31-3.06-1.31V44.97z M173.38,36.67
			c-1.38,0-2.55-0.51-3.64-1.53c-1.02-1.09-1.53-2.33-1.53-3.71s0.51-2.55,1.53-3.64c1.09-1.02,2.26-1.53,3.64-1.53
			s2.62,0.51,3.64,1.53c1.02,1.09,1.53,2.26,1.53,3.64s-0.51,2.62-1.53,3.71C176,36.16,174.76,36.67,173.38,36.67z"/>
		<path class="st1" d="M221.62,55.3c3.13-8.37,8.15-12.73,14.92-13.02c4.44-0.15,7.86,0.87,10.4,3.13c2.47,2.26,3.78,5.75,4,10.62
			V76.4c0,2.25,1.09,3.56,3.35,3.86v0.65h-13.24v-0.65c2.11-0.36,3.27-1.6,3.35-3.86c0-3.42,0-6.91-0.07-10.33V55.73
			c0-2.26-0.22-4.37-0.73-6.33c-0.51-1.96-1.46-3.49-2.84-4.58s-3.49-1.53-6.18-1.31c-3.86,0.8-6.84,2.98-8.95,6.48
			c-2.18,3.49-3.56,7.06-4.15,10.77v15.71c-0.07,2.26,1.09,3.56,3.35,3.78v0.65H211.5v-0.65c2.18-0.36,3.27-1.6,3.35-3.86V66.06
			c-0.07-3.42-0.07-6.91-0.07-10.33c0-2.26-0.22-4.37-0.73-6.33c-0.51-1.96-1.46-3.49-2.84-4.58s-3.49-1.53-6.18-1.31
			c-3.86,0.8-6.84,2.98-8.95,6.48c-2.18,3.49-3.56,7.06-4.15,10.77v15.71c0,2.26,1.09,3.49,3.35,3.78v0.65h-13.24v-0.65
			c2.18-0.36,3.27-1.6,3.35-3.86V49.84c0-1.31-0.29-2.4-0.95-3.27s-1.67-1.31-3.06-1.31V44.6c3.71-0.44,6.77-1.09,9.31-2.04h1.02
			v13.68c3.56-9.02,8.66-13.68,15.28-13.97C214.92,41.98,219.8,46.35,221.62,55.3z"/>
		<path class="st1" d="M254.94,44.97c3.27-0.36,6.4-1.02,9.53-2.04h1.02v33.83c0,2.26,1.09,3.56,3.35,3.86v0.66H255.6v-0.66
			c2.18-0.36,3.27-1.6,3.35-3.86V50.2c0-1.31-0.29-2.4-0.95-3.27c-0.66-0.87-1.67-1.31-3.06-1.31V44.97z M261.42,36.67
			c-1.38,0-2.55-0.51-3.64-1.53c-1.02-1.09-1.53-2.33-1.53-3.71s0.51-2.55,1.53-3.64c1.09-1.02,2.26-1.53,3.64-1.53
			s2.62,0.51,3.64,1.53c1.02,1.09,1.53,2.26,1.53,3.64s-0.51,2.62-1.53,3.71C264.04,36.16,262.8,36.67,261.42,36.67z"/>
		<path class="st1" d="M303.98,33.98c-2.11,0.44-4,1.16-5.53,2.26s-2.25,2.69-2.18,4.66c0.36,2.76,2.04,4.8,5.02,6.18
			c2.98,1.38,6.55,2.55,10.7,3.49c3.42,0.8,6.69,1.82,9.82,2.98c3.13,1.16,5.75,2.77,7.86,4.73c2.11,2.04,3.2,4.8,3.35,8.22
			c-0.22,3.78-1.38,6.77-3.56,9.02c-2.18,2.25-4.88,3.86-8.15,4.8c-3.27,0.95-6.55,1.46-9.89,1.38c-1.96,0-3.86-0.15-5.82-0.51
			c-1.31-0.29-2.55-0.65-3.78-1.09c-1.16-0.36-2.4-0.73-3.64-1.02c-1.67-0.36-3.2-0.36-4.58,0.07c-0.8,0.36-1.16,1.09-1.09,2.11
			h-0.51l-0.51-2.25c0-0.15,0-0.29-0.07-0.36c-0.36-1.67-0.73-3.49-1.16-5.53l-1.09-5.09c-0.07-0.36-0.15-0.8-0.22-1.16
			c-0.07-0.44-0.22-0.87-0.29-1.24v-0.15l0.44-0.14c0.51,1.96,1.46,3.86,2.91,5.67c2.98,3.57,6.55,6.26,10.55,8
			c2.69,1.09,5.82,1.67,9.24,1.75c3.86-0.07,7.2-0.95,9.97-2.77c2.69-1.82,4.15-4.8,4.22-8.95c-0.58-4.15-2.69-7.13-6.26-8.95
			c-3.64-1.75-7.78-3.06-12.37-4c-4.44-0.95-8.37-2.18-11.79-3.86c-3.42-1.67-5.46-4.37-5.97-8.15c0.07-3.13,1.16-5.53,3.42-7.2
			c2.25-1.67,4.87-2.91,8-3.56c3.13-0.65,5.89-0.95,8.29-0.95c2.25,0,4.44,0.22,6.47,0.58c1.96,0.36,4,0.87,6.11,1.53
			c0.73,0.22,1.46,0.29,2.11,0.29c0.8,0,1.38-0.22,1.6-0.58c0.22-0.36,0.29-1.02,0.14-1.82h0.58c0.8,3.56,1.6,7.2,2.47,10.84
			c0.14,0.73,0.29,1.46,0.51,2.26l-0.51,0.22c-1.6-4.29-4.15-7.42-7.64-9.39c-3.57-1.96-7.49-2.91-11.86-2.91
			C307.84,33.4,306.09,33.62,303.98,33.98z"/>
		<path class="st1" d="M338.11,64.68c2.11-1.67,4.58-2.98,7.57-3.78c5.46-1.38,10.99-2.25,16.66-2.62c1.75-0.15,3.49-0.29,5.24-0.51
			c0-4.8-1.09-8.44-3.27-10.84c-1.6-1.67-3.78-2.69-6.47-3.13c-1.89-0.22-3.93-0.22-6.04,0.15c-2.11,0.36-3.93,1.24-5.31,2.47
			c-1.38,1.31-2.04,3.13-1.89,5.53c0.51,2.69-0.58,4.22-3.27,4.58c-3.71,0.22-5.17-1.53-4.37-5.17c1.16-2.47,3.06-4.37,5.75-5.75
			c2.18-1.16,4.44-1.96,6.84-2.47c2.33-0.44,4.73-0.65,7.13-0.65c2.76,0,5.53,0.44,8.22,1.38c2.69,0.95,4.95,2.55,6.77,4.8
			c1.67,2.26,2.47,5.31,2.47,9.17v14.99c-0.07,1.38,0,2.84,0.29,4.37s1.24,2.33,2.76,2.4c0.73-0.07,1.31-0.36,1.67-0.95
			c0.36-0.51,0.58-1.16,0.73-1.96c0.07-0.73,0.14-1.38,0.07-1.96h0.73c0,2.18-0.36,3.86-1.16,5.09s-2.47,1.82-4.87,1.89
			c-2.4,0-4.07-0.73-5.02-2.18c-1.02-1.46-1.67-3.35-2.04-5.67c-4.37,5.24-9.53,7.86-15.42,7.86c-2.25,0.07-4.73-0.15-7.35-0.65
			c-2.69-0.51-4.95-1.53-6.91-2.98s-2.98-3.57-3.13-6.33C334.76,68.76,336,66.36,338.11,64.68z M364.52,59.15l-2.91,0.44
			c-2.69,0.36-5.6,0.87-8.66,1.67c-3.05,0.8-5.75,2.04-8,3.71c-2.26,1.75-3.57,4.22-3.93,7.42c0.15,2.62,1.09,4.58,2.77,5.89
			c1.67,1.31,3.71,2.04,6.18,2.26c4.8,0.44,9.09-0.8,12.88-3.71c1.89-1.53,3.49-3.56,4.73-6.04V58.72L364.52,59.15z"/>
		<path class="st1" d="M412.39,43.15c2.18,0.8,3.64,2.33,4.29,4.51c0.44,1.67,0.22,3.06-0.66,4.22c-1.02,0.95-2.18,1.38-3.49,1.38
			c-1.16,0-2.11-0.36-2.76-1.02c-0.73-0.66-1.24-1.6-1.53-2.69c-0.36-1.38-0.95-2.62-1.89-3.56c-1.24-0.95-2.69-1.38-4.29-1.24
			c-3.2,0.44-5.6,2.04-7.28,4.87c-1.67,2.84-2.84,5.67-3.49,8.44c-0.36,1.24-0.51,2.55-0.51,3.86v14.7
			c0.07,2.18,1.16,3.42,3.35,3.64v0.65h-13.1v-0.65c2.11-0.36,3.2-1.6,3.27-3.86V63.08c0.07-4.44,0.07-8.8,0.07-13.24
			c0-1.31-0.29-2.4-0.95-3.27c-0.65-0.87-1.67-1.31-3.05-1.31V44.6c3.64-0.51,6.69-1.16,9.24-2.04h1.02c0,4.58,0,9.24,0.07,13.9
			c0.95-4,2.69-7.35,5.17-9.89c2.4-2.55,5.75-4,10.04-4.37C408.03,41.98,410.13,42.35,412.39,43.15z"/>
		<path class="st1" d="M420.11,32.74c0-1.31-0.29-2.4-0.95-3.27c-0.66-0.87-1.67-1.31-3.06-1.24v-0.73
			c3.71-0.44,6.91-1.09,9.53-2.04h1.02v51.29c0,2.26,1.09,3.56,3.35,3.86v0.66h-13.24v-0.66c2.18-0.36,3.27-1.6,3.35-3.86V32.74z"/>
	</g>
</g>
<g>
	<polygon class="st2" points="37.89,83.37 49.78,97.99 62.07,83.37 49.59,69.33 	"/>
	<circle class="st2" cx="89.11" cy="91.75" r="5.53"/>
	
		<linearGradient id="SVGID_1_" gradientUnits="userSpaceOnUse" x1="24.4317" y1="27.8437" x2="84.6617" y2="74.9581" gradientTransform="matrix(1 0 0 -1 0 102)">
		<stop  offset="0" style="stop-color:#AF1924"/>
		<stop  offset="1" style="stop-color:#EF2546"/>
	</linearGradient>
	<path class="st3" d="M81.94,73.93c2.87-3.28,2.46-5.74,2.46-6.56c0,0-2.47,0.9-4.42,0.87c2.81-4.98,4.42-10.73,4.42-16.85
		c0-18.98-15.44-34.42-34.42-34.42S15.55,32.41,15.55,51.39c0,13.74,8.1,25.62,19.76,31.14l11.2-13.44
		c-8.3-1.62-14.58-8.94-14.58-17.69c0-9.94,8.09-18.03,18.03-18.03S68,41.45,68,51.39c0,8.99-6.62,16.47-15.24,17.81l11.51,12.94
		c-0.12,1.91-0.44,4.07-0.44,4.07S73.34,85.4,81.94,73.93z"/>
	<path class="st2" d="M86.16,82.37c1.48-1.83,2.69-4.42,1.93-6.8c-1.32,0.67-2.61,1.4-3.79,2.29c-0.35,0.26-0.69,0.53-1.02,0.82
		c-2.01,1.73-3.61,3.85-5.66,5.53c-0.94,0.77-1.95,1.45-2.85,2.26c-0.91,0.82-1.73,1.73-2.47,2.7c-0.37,0.49-0.71,0.99-1.04,1.51
		c-0.06,0.1-0.5,1.08-0.55,1.07c1.67,0.09,3.29-0.35,4.79-1.06c2.33-1.09,4.34-2.73,6.33-4.33C83.37,85.14,84.92,83.9,86.16,82.37z"
		/>
	<path class="st2" d="M55.31,8.5c0-3.24-2.63-5.88-5.88-5.88h-0.54c-3.24,0-5.88,2.63-5.88,5.88v6.01h12.29V8.5z"/>
	<path class="st2" d="M89.4,33.39c2.74-1.74,3.54-5.38,1.8-8.12l-0.29-0.46c-1.74-2.74-5.38-3.54-8.12-1.8l-5.07,3.23l6.61,10.37
		L89.4,33.39z"/>
	<path class="st2" d="M13.1,50.78c0-0.34-0.28-0.61-0.61-0.61H1.01c-0.34,0-0.61,0.28-0.61,0.61c0,0.34,0.28,0.61,0.61,0.61h11.48
		C12.82,51.39,13.1,51.12,13.1,50.78z"/>
	<path class="st2" d="M14.03,72.85l-9.16,6.92c-0.27,0.2-0.32,0.59-0.12,0.86c0.2,0.27,0.59,0.32,0.86,0.12l9.16-6.92
		c0.27-0.2,0.32-0.59,0.12-0.86C14.68,72.7,14.3,72.65,14.03,72.85z"/>
	<path class="st2" d="M4.05,21.79l9.16,6.92c0.27,0.2,0.66,0.15,0.86-0.12c0.2-0.27,0.15-0.66-0.12-0.86L4.79,20.8
		c-0.27-0.2-0.66-0.15-0.86,0.12C3.73,21.2,3.78,21.58,4.05,21.79z"/>
</g>
</svg>
