<?xml version="1.0" encoding="utf-8"?>
<!-- Generator: Adobe Illustrator 26.0.1, SVG Export Plug-In . SVG Version: 6.00 Build 0)  -->
<svg version="1.1" id="Calque_1" xmlns="http://www.w3.org/2000/svg" xmlns:xlink="http://www.w3.org/1999/xlink" x="0px" y="0px"
	 viewBox="0 0 430 100" style="enable-background:new 0 0 430 100;" xml:space="preserve">
<style type="text/css">
	.st0{font-family:'Selino';}
	.st1{font-size:72.7593px;}
	.st2{letter-spacing:-1;}
	.st3{fill:#ED1C24;}
	.st4{fill:url(#SVGID_1_);}
</style>
<g>
	<text transform="matrix(1 0 0 1 111.5366 81.2705)" class="st0 st1 st2">Kimi Sarl</text>
</g>
<g>
	<polygon class="st3" points="37.89,83.37 49.78,97.99 62.07,83.37 49.59,69.33 	"/>
	<circle class="st3" cx="89.11" cy="91.75" r="5.53"/>
	
		<linearGradient id="SVGID_1_" gradientUnits="userSpaceOnUse" x1="24.4317" y1="27.8437" x2="84.6617" y2="74.9581" gradientTransform="matrix(1 0 0 -1 0 102)">
		<stop  offset="0" style="stop-color:#AF1924"/>
		<stop  offset="1" style="stop-color:#EF2546"/>
	</linearGradient>
	<path class="st4" d="M81.94,73.93c2.87-3.28,2.46-5.74,2.46-6.56c0,0-2.47,0.9-4.42,0.87c2.81-4.98,4.42-10.73,4.42-16.85
		c0-18.98-15.44-34.42-34.42-34.42S15.55,32.41,15.55,51.39c0,13.74,8.1,25.62,19.76,31.14l11.2-13.44
		c-8.3-1.62-14.58-8.94-14.58-17.69c0-9.94,8.09-18.03,18.03-18.03S68,41.45,68,51.39c0,8.99-6.62,16.47-15.24,17.81l11.51,12.94
		c-0.12,1.91-0.44,4.07-0.44,4.07S73.34,85.4,81.94,73.93z"/>
	<path class="st3" d="M86.16,82.37c1.48-1.83,2.69-4.42,1.93-6.8c-1.32,0.67-2.61,1.4-3.79,2.29c-0.35,0.26-0.69,0.53-1.02,0.82
		c-2.01,1.73-3.61,3.85-5.66,5.53c-0.94,0.77-1.95,1.45-2.85,2.26c-0.91,0.82-1.73,1.73-2.47,2.7c-0.37,0.49-0.71,0.99-1.04,1.51
		c-0.06,0.1-0.5,1.08-0.55,1.07c1.67,0.09,3.29-0.35,4.79-1.06c2.33-1.09,4.34-2.73,6.33-4.33C83.37,85.14,84.92,83.9,86.16,82.37z"
		/>
	<path class="st3" d="M55.31,8.5c0-3.24-2.63-5.88-5.88-5.88h-0.54c-3.24,0-5.88,2.63-5.88,5.88v6.01h12.29V8.5z"/>
	<path class="st3" d="M89.4,33.39c2.74-1.74,3.54-5.38,1.8-8.12l-0.29-0.46c-1.74-2.74-5.38-3.54-8.12-1.8l-5.07,3.23l6.61,10.37
		L89.4,33.39z"/>
	<path class="st3" d="M13.1,50.78c0-0.34-0.28-0.61-0.61-0.61H1.01c-0.34,0-0.61,0.28-0.61,0.61c0,0.34,0.28,0.61,0.61,0.61h11.48
		C12.82,51.39,13.1,51.12,13.1,50.78z"/>
	<path class="st3" d="M14.03,72.85l-9.16,6.92c-0.27,0.2-0.32,0.59-0.12,0.86c0.2,0.27,0.59,0.32,0.86,0.12l9.16-6.92
		c0.27-0.2,0.32-0.59,0.12-0.86C14.68,72.7,14.3,72.65,14.03,72.85z"/>
	<path class="st3" d="M4.05,21.79l9.16,6.92c0.27,0.2,0.66,0.15,0.86-0.12c0.2-0.27,0.15-0.66-0.12-0.86L4.79,20.8
		c-0.27-0.2-0.66-0.15-0.86,0.12C3.73,21.2,3.78,21.58,4.05,21.79z"/>
</g>
</svg>
